Genre:Action | Adventure | Crime | Thriller
Language: English
IMDB:http://www.imdb.com/title/tt0985694/
Source:DVD-Rus
Subtitles: ROMANA

General
Complete name :Machete.R5.LINE.H264.Feel-Free
Format : MPEG-4
Format profile : Base Media
Codec ID : isom
File size : 1.23 GiB
Duration : 1h 39mn
Overall bit rate : 1 767 Kbps
Video #1
ID : 1
Format : AVC
Format/Info : Advanced Video Codec
Format profile : Baseline@L5.1
Format settings, CABAC : No
Format settings, ReFrames : 1 frame
Codec ID : avc1
Codec ID/Info : Advanced Video Coding
Duration : 1h 39mn
Bit rate mode : Variable
Bit rate : 1 521 Kbps
Width : 652 pixels
Height : 352 pixels
Display aspect ratio : 1.852
Frame rate mode : Constant
Frame rate : 25.000 fps
Resolution : 24 bits
Colorimetry : 4:2:0
Scan type : Progressive
Bits/(Pixel*Frame) : 0.265
Stream size : 1.06 GiB (86%)
Audio #2
ID : 2
Format : AAC
Format/Info : Advanced Audio Codec
Format version : Version 4
Format profile : LC
Format settings, SBR : No
Codec ID : 40
Duration : 1h 39mn
Bit rate mode : Variable
Bit rate : 256 Kbps
Channel(s) : 6 channels
Channel positions : Front: L C R, Rear: L R, LFE
Sampling rate : 48.0 KHz
Resolution : 16 bits
Stream size : 172 MiB (14%)

Plot
After being betrayed by the organization who hired him, an ex-Federale launches a brutal rampage of revenge against his former boss








================================== 
http://thepiratebay.org/user/hiest
==================================









Screenshots:
 
http://www.starshare.ro/bitbucket/vlcsnap2010-09-22-17h50m34s14.jpg
 
http://www.starshare.ro/bitbucket/vlcsnap2010-09-22-17h50m40s79.jpg
 
http://www.starshare.ro/bitbucket/vlcsnap2010-09-22-17h50m45s130.jpg
 
http://www.starshare.ro/bitbucket/vlcsnap2010-09-22-17h50m55s235.jpg